<svg width="105" height="36" viewBox="0 0 105 36" fill="none" xmlns="http://www.w3.org/2000/svg">
<rect width="36" height="36" rx="5" fill="#09090B"/>
<path d="M8.18994 9C8.18994 8.44772 8.63766 8 9.18994 8H23.8499V27.8H9.18994C8.63766 27.8 8.18994 27.3523 8.18994 26.8V9Z" fill="#FAFAFA"/>
<path d="M9.31494 18.215C13.2394 13.2461 20.726 8.44739 23.8499 8.44739V27.4609C20.9212 27.4609 13.2004 23.1345 9.31494 18.215Z" fill="#09090B"/>
<circle cx="23.85" cy="17.99" r="5.4" fill="#FAFAFA"/>
<circle cx="23.8499" cy="17.9899" r="2.7" fill="#09090B"/>
<path d="M24.282 19.9493L25.4275 18.8038L28.4822 21.8585L27.3367 23.004L24.282 19.9493Z" fill="#09090B"/>
<path d="M47.8 29V26.336H51.4V14.912H47.8V12.248H58.6V14.912H55V26.336H58.6V29H47.8ZM53.584 11.24L51.472 10.208L53.848 5.552L56.8 7.016L53.584 11.24ZM62.1666 26.24H65.0226V19.376H62.1666V16.616H68.5746V20.12H68.7426C68.8546 19.672 69.0066 19.24 69.1986 18.824C69.4066 18.392 69.6626 18.016 69.9666 17.696C70.2866 17.36 70.6706 17.096 71.1186 16.904C71.5666 16.712 72.0946 16.616 72.7026 16.616H73.8786V19.88H71.2386C70.3586 19.88 69.6946 20.144 69.2466 20.672C68.7986 21.184 68.5746 21.816 68.5746 22.568V26.24H72.6546V29H62.1666V26.24ZM82.7493 15.032C81.9493 15.032 81.3893 14.872 81.0693 14.552C80.7653 14.216 80.6133 13.816 80.6133 13.352V12.656C80.6133 12.176 80.7653 11.776 81.0693 11.456C81.3893 11.136 81.9493 10.976 82.7493 10.976C83.5493 10.976 84.1013 11.136 84.4053 11.456C84.7253 11.776 84.8853 12.176 84.8853 12.656V13.352C84.8853 13.816 84.7253 14.216 84.4053 14.552C84.1013 14.872 83.5493 15.032 82.7493 15.032ZM77.0373 26.24H80.9733V19.376H77.0373V16.616H84.5253V26.24H88.1733V29H77.0373V26.24ZM96.2279 29.288C94.8519 29.288 93.6519 29.08 92.6279 28.664C91.6199 28.248 90.8599 27.68 90.3479 26.96L92.3399 25.112C92.8199 25.64 93.3799 26.056 94.0199 26.36C94.6759 26.648 95.4199 26.792 96.2519 26.792C96.9559 26.792 97.5079 26.688 97.9079 26.48C98.3079 26.256 98.5079 25.92 98.5079 25.472C98.5079 25.12 98.3719 24.88 98.0999 24.752C97.8279 24.608 97.4519 24.496 96.9719 24.416L94.9799 24.104C94.4199 24.024 93.8999 23.904 93.4199 23.744C92.9399 23.568 92.5239 23.336 92.1719 23.048C91.8199 22.76 91.5399 22.408 91.3319 21.992C91.1239 21.576 91.0199 21.072 91.0199 20.48C91.0199 19.184 91.5159 18.168 92.5079 17.432C93.4999 16.696 94.8919 16.328 96.6839 16.328C97.8999 16.328 98.9319 16.496 99.7799 16.832C100.644 17.152 101.332 17.616 101.844 18.224L100.068 20.24C99.6999 19.84 99.2279 19.504 98.6519 19.232C98.0759 18.96 97.3799 18.824 96.5639 18.824C95.1879 18.824 94.4999 19.24 94.4999 20.072C94.4999 20.44 94.6359 20.696 94.9079 20.84C95.1799 20.968 95.5559 21.072 96.0359 21.152L98.0039 21.464C98.5639 21.544 99.0839 21.672 99.5639 21.848C100.044 22.008 100.46 22.232 100.812 22.52C101.18 22.808 101.468 23.16 101.676 23.576C101.884 23.992 101.988 24.496 101.988 25.088C101.988 26.384 101.484 27.408 100.476 28.16C99.4839 28.912 98.0679 29.288 96.2279 29.288Z" fill="#09090B"/>
</svg>
